<svg width="52" height="59" viewBox="0 0 52 59" fill="none" xmlns="http://www.w3.org/2000/svg">
<path d="M8.66667 49.1666C7.475 49.1666 6.45486 48.6852 5.60625 47.7224C4.75764 46.7595 4.33333 45.6021 4.33333 44.25V14.75C4.33333 13.3979 4.75764 12.2404 5.60625 11.2776C6.45486 10.3147 7.475 9.83331 8.66667 9.83331H21.6667L26 14.75H43.3333C44.525 14.75 45.5451 15.2314 46.3937 16.1943C47.2424 17.1571 47.6667 18.3146 47.6667 19.6666V44.25C47.6667 45.6021 47.2424 46.7595 46.3937 47.7224C45.5451 48.6852 44.525 49.1666 43.3333 49.1666H8.66667ZM8.66667 44.25H43.3333V19.6666H24.2125L19.8792 14.75H8.66667V44.25Z" fill="#FEF7FF"/>
</svg>
