<svg width="108" height="88" viewBox="0 0 108 88" fill="none" xmlns="http://www.w3.org/2000/svg">
<path d="M22.5 77H85.5C90.4706 77 94.5 73.7168 94.5 69.6667V18.3333C94.5 14.2832 90.4706 11 85.5 11H22.5C17.5294 11 13.5 14.2832 13.5 18.3333V69.6667C13.5 73.7168 17.5294 77 22.5 77ZM22.5 77L72 36.6667L94.5 55M45 31.1667C45 34.2042 41.9779 36.6667 38.25 36.6667C34.5221 36.6667 31.5 34.2042 31.5 31.1667C31.5 28.1291 34.5221 25.6667 38.25 25.6667C41.9779 25.6667 45 28.1291 45 31.1667Z" stroke="#F3F3F3" stroke-width="4" stroke-linecap="round" stroke-linejoin="round"/>
</svg>
