<svg width="86" height="72" viewBox="0 0 86 72" fill="none" xmlns="http://www.w3.org/2000/svg">
<path d="M80.7684 19.26C80.3427 17.8362 79.4758 16.5317 78.2552 15.4782C77.0346 14.4247 75.5035 13.6596 73.8167 13.26C67.6533 12 43 12 43 12C43 12 18.3467 12 12.1833 13.38C10.4965 13.7796 8.96543 14.5447 7.74484 15.5982C6.52425 16.6517 5.65734 17.9562 5.23168 19.38C4.1037 24.6167 3.55194 29.9289 3.58335 35.25C3.54314 40.6111 4.09493 45.9639 5.23168 51.24C5.70095 52.6195 6.58728 53.8744 7.80503 54.8834C9.02278 55.8924 10.5308 56.6214 12.1833 57C18.3467 58.38 43 58.38 43 58.38C43 58.38 67.6533 58.38 73.8167 57C75.5035 56.6004 77.0346 55.8353 78.2552 54.7818C79.4758 53.7283 80.3427 52.4238 80.7684 51C81.8876 45.8028 82.4393 40.531 82.4167 35.25C82.4569 29.8889 81.9051 24.5361 80.7684 19.26Z" stroke="#F3F3F3" stroke-width="4" stroke-linecap="round" stroke-linejoin="round"/>
<path d="M34.9375 45.06L55.5417 35.25L34.9375 25.44V45.06Z" stroke="#F3F3F3" stroke-width="4" stroke-linecap="round" stroke-linejoin="round"/>
</svg>
