<svg width="72" height="62" viewBox="0 0 72 62" fill="none" xmlns="http://www.w3.org/2000/svg">
<path d="M24 43.9167L36 54.25M36 54.25L48 43.9167M36 54.25V31M62.64 46.7325C65.2482 45.1532 67.2041 42.8992 68.2239 40.2978C69.2437 37.6964 69.2743 34.8828 68.3112 32.2654C67.3482 29.648 65.4416 27.3629 62.8683 25.7418C60.2949 24.1207 57.1885 23.2479 54 23.25H50.22C49.3178 20.222 47.6295 17.4097 45.2824 15.0249C42.9353 12.64 39.9905 10.7448 36.6697 9.48176C33.3489 8.21875 29.7386 7.62091 26.1106 7.73326C22.4827 7.84561 18.9316 8.66521 15.7247 10.1304C12.5178 11.5955 9.73872 13.668 7.59661 16.1919C5.45449 18.7158 4.0052 21.6252 3.35783 24.7012C2.71045 27.7772 2.88187 30.9396 3.85918 33.9502C4.83649 36.9609 6.59422 39.7415 9.00004 42.0825" stroke="#F3F3F3" stroke-width="4" stroke-linecap="round" stroke-linejoin="round"/>
</svg>
